<?xml version="1.0" encoding="utf-8"?>
<!-- Generator: Adobe Illustrator 22.0.0, SVG Export Plug-In . SVG Version: 6.00 Build 0)  -->
<svg version="1.1" id="Layer_1" xmlns="http://www.w3.org/2000/svg" xmlns:xlink="http://www.w3.org/1999/xlink" x="0px" y="0px"
	 viewBox="0 0 30 30" style="enable-background:new 0 0 30 30;" xml:space="preserve">
<style type="text/css">
	.st0{opacity:0.15;}
</style>
<g class="st0">
	<g>
		<path d="M2.1-4.9C0.8-5.1-0.5-4.9-1.6-4.3L-3-5.7c0.3-0.4,0.3-0.9,0-1.3l-0.3-0.3c-0.4-0.4-1-0.4-1.3,0l-2.5,2.5
			c-0.2,0.2-0.3,0.4-0.3,0.7c0,0.2,0.1,0.5,0.3,0.7l0.3,0.3C-6.6-2.7-6-2.7-5.7-3l1.4,1.4c-1.3,2.4-0.8,5.4,1.1,7.4
			c2.4,2.4,6.4,2.4,8.8,0c2.4-2.4,2.4-6.4,0-8.8C4.7-4.1,3.4-4.7,2.1-4.9z M-6.5-3.6l-0.3-0.3C-6.8-3.9-6.8-4-6.8-4.1
			c0-0.1,0-0.1,0.1-0.2l2.5-2.5c0.1-0.1,0.3-0.1,0.4,0l0.3,0.3c0.1,0.1,0.1,0.3,0,0.4l-2.5,2.5C-6.2-3.5-6.4-3.5-6.5-3.6z M5.2,5.2
			C3.1,7.3-0.3,7.4-2.5,5.5l0.8-0.8c0.1-0.1,0.1-0.3,0-0.5c-0.1-0.1-0.3-0.1-0.5,0L-2.9,5c-1.6-1.8-1.9-4.4-0.6-6.5
			c0.1-0.1,0.1-0.3-0.1-0.4l-1.6-1.6l1.7-1.7l1.6,1.6c0.1,0.1,0.3,0.1,0.4,0.1C0.6-4.8,3.2-4.5,5-2.9L4.3-2.3
			c-0.1,0.1-0.1,0.3,0,0.5c0.1,0.1,0.3,0.1,0.5,0l0.6-0.6C7.4-0.2,7.3,3.1,5.2,5.2z"/>
		<path d="M-0.5,2.5l-0.9,0.9c-0.1,0.1-0.1,0.3,0,0.5C-1.2,4-1,4-0.9,3.9L0,3c0.1-0.1,0.1-0.3,0-0.5S-0.3,2.4-0.5,2.5z"/>
		<path d="M1.5,0.6L0.6,1.4c-0.1,0.1-0.1,0.3,0,0.5S1,2,1.1,1.9L2,1c0.1-0.1,0.1-0.3,0-0.5S1.6,0.4,1.5,0.6z"/>
		<path d="M3.5-1.4L2.6-0.5c-0.1,0.1-0.1,0.3,0,0.5s0.3,0.1,0.5,0L4-1c0.1-0.1,0.1-0.3,0-0.5C3.8-1.5,3.6-1.5,3.5-1.4z"/>
	</g>
</g>
<g class="st0">
	<g>
		<path d="M17.1,10.1c-1.3-0.2-2.5,0.1-3.7,0.6L12,9.3c0.3-0.4,0.3-0.9,0-1.3l-0.3-0.3c-0.4-0.4-1-0.4-1.3,0l-2.5,2.5
			c-0.2,0.2-0.3,0.4-0.3,0.7c0,0.2,0.1,0.5,0.3,0.7l0.3,0.3c0.3,0.3,0.9,0.4,1.3,0l1.4,1.4c-1.3,2.4-0.8,5.4,1.1,7.4
			c2.4,2.4,6.4,2.4,8.8,0c2.4-2.4,2.4-6.4,0-8.8C19.7,10.9,18.4,10.3,17.1,10.1z M8.5,11.4l-0.3-0.3c-0.1-0.1-0.1-0.1-0.1-0.2
			c0-0.1,0-0.1,0.1-0.2l2.5-2.5c0.1-0.1,0.3-0.1,0.4,0l0.3,0.3c0.1,0.1,0.1,0.3,0,0.4l-2.5,2.5C8.8,11.5,8.6,11.5,8.5,11.4z
			 M20.2,20.2c-2.1,2.1-5.5,2.2-7.7,0.2l0.8-0.8c0.1-0.1,0.1-0.3,0-0.5c-0.1-0.1-0.3-0.1-0.5,0L12.1,20c-1.6-1.8-1.9-4.4-0.6-6.5
			c0.1-0.1,0.1-0.3-0.1-0.4l-1.6-1.6l1.7-1.7l1.6,1.6c0.1,0.1,0.3,0.1,0.4,0.1c2.1-1.2,4.7-0.9,6.5,0.7l-0.6,0.6
			c-0.1,0.1-0.1,0.3,0,0.5s0.3,0.1,0.5,0l0.6-0.6C22.4,14.8,22.3,18.1,20.2,20.2z"/>
		<path d="M14.5,17.5l-0.9,0.9c-0.1,0.1-0.1,0.3,0,0.5c0.1,0.1,0.3,0.1,0.5,0L15,18c0.1-0.1,0.1-0.3,0-0.5S14.7,17.4,14.5,17.5z"/>
		<path d="M16.5,15.6l-0.9,0.9c-0.1,0.1-0.1,0.3,0,0.5s0.3,0.1,0.5,0L17,16c0.1-0.1,0.1-0.3,0-0.5S16.6,15.4,16.5,15.6z"/>
		<path d="M18.5,13.6l-0.9,0.9c-0.1,0.1-0.1,0.3,0,0.5c0.1,0.1,0.3,0.1,0.5,0L19,14c0.1-0.1,0.1-0.3,0-0.5
			C18.8,13.5,18.6,13.5,18.5,13.6z"/>
	</g>
</g>
<g class="st0">
	<g>
		<path d="M32.1-4.9c-1.3-0.2-2.5,0.1-3.7,0.6L27-5.7c0.3-0.4,0.3-0.9,0-1.3l-0.3-0.3c-0.4-0.4-1-0.4-1.3,0l-2.5,2.5
			c-0.2,0.2-0.3,0.4-0.3,0.7c0,0.2,0.1,0.5,0.3,0.7l0.3,0.3c0.3,0.3,0.9,0.4,1.3,0l1.4,1.4c-1.3,2.4-0.8,5.4,1.1,7.4
			c2.4,2.4,6.4,2.4,8.8,0c2.4-2.4,2.4-6.4,0-8.8C34.7-4.1,33.4-4.7,32.1-4.9z M23.5-3.6l-0.3-0.3c-0.1-0.1-0.1-0.1-0.1-0.2
			c0-0.1,0-0.1,0.1-0.2l2.5-2.5c0.1-0.1,0.3-0.1,0.4,0l0.3,0.3c0.1,0.1,0.1,0.3,0,0.4l-2.5,2.5C23.8-3.5,23.6-3.5,23.5-3.6z
			 M35.2,5.2c-2.1,2.1-5.5,2.2-7.7,0.2l0.8-0.8c0.1-0.1,0.1-0.3,0-0.5c-0.1-0.1-0.3-0.1-0.5,0L27.1,5c-1.6-1.8-1.9-4.4-0.6-6.5
			c0.1-0.1,0.1-0.3-0.1-0.4l-1.6-1.6l1.7-1.7l1.6,1.6c0.1,0.1,0.3,0.1,0.4,0.1c2.1-1.2,4.7-0.9,6.5,0.7l-0.6,0.6
			c-0.1,0.1-0.1,0.3,0,0.5c0.1,0.1,0.3,0.1,0.5,0l0.6-0.6C37.4-0.2,37.3,3.1,35.2,5.2z"/>
		<path d="M29.5,2.5l-0.9,0.9c-0.1,0.1-0.1,0.3,0,0.5C28.8,4,29,4,29.1,3.9L30,3c0.1-0.1,0.1-0.3,0-0.5C29.9,2.4,29.7,2.4,29.5,2.5z
			"/>
		<path d="M31.5,0.6l-0.9,0.9c-0.1,0.1-0.1,0.3,0,0.5C30.8,2,31,2,31.1,1.9L32,1c0.1-0.1,0.1-0.3,0-0.5S31.6,0.4,31.5,0.6z"/>
		<path d="M33.5-1.4l-0.9,0.9c-0.1,0.1-0.1,0.3,0,0.5c0.1,0.1,0.3,0.1,0.5,0L34-1c0.1-0.1,0.1-0.3,0-0.5C33.8-1.5,33.6-1.5,33.5-1.4
			z"/>
	</g>
</g>
<g class="st0">
	<g>
		<path d="M32.1,25.1c-1.3-0.2-2.5,0.1-3.7,0.6L27,24.3c0.3-0.4,0.3-0.9,0-1.3l-0.3-0.3c-0.4-0.4-1-0.4-1.3,0l-2.5,2.5
			c-0.2,0.2-0.3,0.4-0.3,0.7c0,0.2,0.1,0.5,0.3,0.7l0.3,0.3c0.3,0.3,0.9,0.4,1.3,0l1.4,1.4c-1.3,2.4-0.8,5.4,1.1,7.4
			c2.4,2.4,6.4,2.4,8.8,0c2.4-2.4,2.4-6.4,0-8.8C34.7,25.9,33.4,25.3,32.1,25.1z M23.5,26.4l-0.3-0.3c-0.1-0.1-0.1-0.1-0.1-0.2
			c0-0.1,0-0.1,0.1-0.2l2.5-2.5c0.1-0.1,0.3-0.1,0.4,0l0.3,0.3c0.1,0.1,0.1,0.3,0,0.4l-2.5,2.5C23.8,26.5,23.6,26.5,23.5,26.4z
			 M35.2,35.2c-2.1,2.1-5.5,2.2-7.7,0.2l0.8-0.8c0.1-0.1,0.1-0.3,0-0.5c-0.1-0.1-0.3-0.1-0.5,0L27.1,35c-1.6-1.8-1.9-4.4-0.6-6.5
			c0.1-0.1,0.1-0.3-0.1-0.4l-1.6-1.6l1.7-1.7l1.6,1.6c0.1,0.1,0.3,0.1,0.4,0.1c2.1-1.2,4.7-0.9,6.5,0.7l-0.6,0.6
			c-0.1,0.1-0.1,0.3,0,0.5c0.1,0.1,0.3,0.1,0.5,0l0.6-0.6C37.4,29.8,37.3,33.1,35.2,35.2z"/>
		<path d="M29.5,32.5l-0.9,0.9c-0.1,0.1-0.1,0.3,0,0.5c0.1,0.1,0.3,0.1,0.5,0L30,33c0.1-0.1,0.1-0.3,0-0.5
			C29.9,32.4,29.7,32.4,29.5,32.5z"/>
		<path d="M31.5,30.6l-0.9,0.9c-0.1,0.1-0.1,0.3,0,0.5c0.1,0.1,0.3,0.1,0.5,0L32,31c0.1-0.1,0.1-0.3,0-0.5S31.6,30.4,31.5,30.6z"/>
		<path d="M33.5,28.6l-0.9,0.9c-0.1,0.1-0.1,0.3,0,0.5c0.1,0.1,0.3,0.1,0.5,0L34,29c0.1-0.1,0.1-0.3,0-0.5
			C33.8,28.5,33.6,28.5,33.5,28.6z"/>
	</g>
</g>
<g class="st0">
	<g>
		<path d="M2.1,25.1c-1.3-0.2-2.5,0.1-3.7,0.6L-3,24.3c0.3-0.4,0.3-0.9,0-1.3l-0.3-0.3c-0.4-0.4-1-0.4-1.3,0l-2.5,2.5
			c-0.2,0.2-0.3,0.4-0.3,0.7c0,0.2,0.1,0.5,0.3,0.7l0.3,0.3c0.3,0.3,0.9,0.4,1.3,0l1.4,1.4c-1.3,2.4-0.8,5.4,1.1,7.4
			c2.4,2.4,6.4,2.4,8.8,0c2.4-2.4,2.4-6.4,0-8.8C4.7,25.9,3.4,25.3,2.1,25.1z M-6.5,26.4l-0.3-0.3c-0.1-0.1-0.1-0.1-0.1-0.2
			c0-0.1,0-0.1,0.1-0.2l2.5-2.5c0.1-0.1,0.3-0.1,0.4,0l0.3,0.3c0.1,0.1,0.1,0.3,0,0.4l-2.5,2.5C-6.2,26.5-6.4,26.5-6.5,26.4z
			 M5.2,35.2c-2.1,2.1-5.5,2.2-7.7,0.2l0.8-0.8c0.1-0.1,0.1-0.3,0-0.5c-0.1-0.1-0.3-0.1-0.5,0L-2.9,35c-1.6-1.8-1.9-4.4-0.6-6.5
			c0.1-0.1,0.1-0.3-0.1-0.4l-1.6-1.6l1.7-1.7l1.6,1.6c0.1,0.1,0.3,0.1,0.4,0.1c2.1-1.2,4.7-0.9,6.5,0.7l-0.6,0.6
			c-0.1,0.1-0.1,0.3,0,0.5c0.1,0.1,0.3,0.1,0.5,0l0.6-0.6C7.4,29.8,7.3,33.1,5.2,35.2z"/>
		<path d="M-0.5,32.5l-0.9,0.9c-0.1,0.1-0.1,0.3,0,0.5c0.1,0.1,0.3,0.1,0.5,0L0,33c0.1-0.1,0.1-0.3,0-0.5S-0.3,32.4-0.5,32.5z"/>
		<path d="M1.5,30.6l-0.9,0.9c-0.1,0.1-0.1,0.3,0,0.5s0.3,0.1,0.5,0L2,31c0.1-0.1,0.1-0.3,0-0.5S1.6,30.4,1.5,30.6z"/>
		<path d="M3.5,28.6l-0.9,0.9c-0.1,0.1-0.1,0.3,0,0.5s0.3,0.1,0.5,0L4,29c0.1-0.1,0.1-0.3,0-0.5C3.8,28.5,3.6,28.5,3.5,28.6z"/>
	</g>
</g>
</svg>
