<?xml version="1.0" encoding="utf-8"?>
<!-- Generator: Adobe Illustrator 22.0.0, SVG Export Plug-In . SVG Version: 6.00 Build 0)  -->
<svg version="1.1" id="Layer_1" xmlns="http://www.w3.org/2000/svg" xmlns:xlink="http://www.w3.org/1999/xlink" x="0px" y="0px"
	 viewBox="0 0 50 50" style="enable-background:new 0 0 50 50;" xml:space="preserve">
<path d="M43.9,38.6L30.3,25l13.5-13.6c1.5-1.5,1.5-3.8,0-5.3s-3.8-1.5-5.3,0L25,19.8L11.5,6.1c-1.5-1.5-3.8-1.5-5.3,0
	s-1.5,3.8,0,5.3L19.7,25L6.1,38.6c-1.5,1.5-1.5,3.8,0,5.3c1.5,1.5,3.8,1.5,5.3,0L25,30.3l13.5,13.6c1.5,1.5,3.8,1.5,5.3,0
	C45.4,42.5,45.4,40.1,43.9,38.6z"/>
</svg>
