<?xml version="1.0" encoding="utf-8"?>
<!-- Generator: Adobe Illustrator 22.0.0, SVG Export Plug-In . SVG Version: 6.00 Build 0)  -->
<svg version="1.1" id="Layer_1" xmlns="http://www.w3.org/2000/svg" xmlns:xlink="http://www.w3.org/1999/xlink" x="0px" y="0px"
	 viewBox="0 0 50 50" style="enable-background:new 0 0 50 50;" xml:space="preserve">
<path d="M44.8,20.4H43c-1.5,0-2.7-1.3-2.7-2.7c0-0.7,0.3-1.4,0.9-1.9l1.1-1.1c1.1-1.1,1.1-3,0-4.1l-2.6-2.6
	c-0.5-0.5-1.3-0.8-2.1-0.8s-1.5,0.3-2.1,0.8L34.5,9c-0.5,0.6-1.2,0.9-2,0.9c-1.5,0-2.8-1.2-2.8-2.7V5.4c0-1.6-1.3-2.9-2.9-2.9h-3.6
	c-1.6,0-2.9,1.3-2.9,2.9v1.8c0,1.4-1.3,2.7-2.8,2.7c-0.8,0-1.4-0.3-1.9-0.9l-1.1-1.1c-0.5-0.5-1.3-0.8-2.1-0.8s-1.5,0.3-2.1,0.8
	l-2.6,2.6c-1.1,1.1-1.1,3,0,4.1L9,15.6c0.6,0.5,0.9,1.2,0.9,2c0,1.5-1.2,2.7-2.7,2.7H5.5c-1.6,0-3,1.3-3,2.8V25v1.8
	c0,1.6,1.3,2.8,3,2.8h1.8c1.5,0,2.7,1.3,2.7,2.7c0,0.7-0.3,1.5-0.9,2l-1.1,1.1c-1.1,1.1-1.1,3,0,4.1l2.6,2.6
	c0.5,0.5,1.3,0.8,2.1,0.8s1.5-0.3,2.1-0.8l1.1-1.1c0.5-0.6,1.2-0.9,1.9-0.9c1.5,0,2.8,1.2,2.8,2.7v1.8c0,1.6,1.3,2.9,2.9,2.9h3.6
	c1.6,0,2.9-1.3,2.9-2.9v-1.8c0-1.4,1.3-2.7,2.8-2.7c0.8,0,1.5,0.3,2,0.9l1.1,1.1c0.5,0.5,1.3,0.8,2.1,0.8s1.5-0.3,2.1-0.8l2.6-2.6
	c1.1-1.1,1.1-3,0-4.1l-1.1-1.1c-0.6-0.5-0.9-1.2-0.9-1.9c0-1.5,1.2-2.7,2.7-2.7h1.8c1.6,0,2.7-1.3,2.7-2.8V25v-1.8
	C47.5,21.6,46.4,20.4,44.8,20.4z M34.5,25L34.5,25c0,5.2-4.2,9.4-9.4,9.4s-9.4-4.2-9.4-9.4l0,0l0,0c0-5.2,4.2-9.4,9.4-9.4
	S34.5,19.8,34.5,25L34.5,25z"/>
</svg>
